# AST/ASF file generated using VICON BodyLanguage
# -----------------------------------------------
:version 1.10
:name VICON
:units
  mass 1.0
  length 0.45
  angle deg
:documentation
   .ast/.asf automatically generated from VICON data using
   VICON BodyBuilder and BodyLanguage model FoxedUp or BRILLIANT.MOD
:root
   order TX TY TZ RX RY RZ
   axis XYZ
   position 0 0 0  
   orientation 0 0 0 
:bonedata
  begin
     id 1 
     name lhipjoint
     direction 0.714689 -0.624256 0.315473 
     length 2.45343 
     axis 0 0 0  XYZ
  end
  begin
     id 2 
     name lfemur
     direction 0.34202 -0.939693 0  
     length 6.59069  
     axis 0 0 20  XYZ
    dof rx ry rz
    limits (-160.0 20.0)
           (-70.0 70.0)
           (-60.0 70.0)
  end
  begin
     id 3 
     name ltibia
     direction 0.34202 -0.939693 0   
     length 6.73476   
     axis 0 0 20   XYZ
    dof rx
    limits (-10.0 170.0)
  end
  begin
     id 4 
     name lfoot
     direction 0.0718085 -0.197292 0.977711   
     length 1.52607   
     axis -90 7.62852e-016 20   XYZ
    dof rx rz
    limits (-45.0 90.0)
           (-70.0 20.0)
  end
  begin
     id 5 
     name ltoes
     direction 1.53553e-011 -4.22024e-011 1   
     length 0.777832   
     axis -90 7.62852e-016 20   XYZ
    dof rx
    limits (-90.0 20.0)
  end
  begin
     id 6 
     name rhipjoint
     direction -0.727419 -0.612432 0.309497   
     length 2.50079  
     axis 0 0 0  XYZ 
  end
  begin
     id 7 
     name rfemur
     direction -0.34202 -0.939693 0   
     length 6.51665   
     axis 0 0 -20   XYZ
    dof rx ry rz
    limits (-160.0 20.0)
           (-70.0 70.0)
           (-70.0 60.0)
  end
  begin
     id 8 
     name rtibia
     direction -0.34202 -0.939693 0   
     length 6.48919   
     axis 0 0 -20   XYZ
    dof rx
    limits (-10.0 170.0)
 end
 begin
     id 9 
     name rfoot
     direction -0.112205 -0.308282 0.944655   
     length 1.68717  
     axis -90 -7.62852e-016 -20   XYZ
    dof rx rz
    limits (-45.0 90.0)
           (-20.0 70.0)
  end
  begin
     id 10 
     name rtoes
     direction -1.53583e-011 -4.21993e-011 1   
     length 0.846859   
     axis -90 -7.62852e-016 -20   XYZ
    dof rx
    limits (-90.0 20.0)
  end
  begin
     id 11 
     name lowerback
     direction -0.00119603 0.996364 -0.0851956   
     length 1.67242   
     axis 0 0 0   XYZ
    dof rx ry rz
    limits (-20.0 45.0)
           (-30.0 30.0)
           (-30.0 30.0)
  end
  begin
     id 12 
     name upperback
     direction -0.00531001 0.998318 0.0577248   
     length 1.64819   
     axis 0 0 0   XYZ
    dof rx ry rz
    limits (-20.0 45.0)
           (-30.0 30.0)
           (-30.0 30.0)
  end
  begin
     id 13 
     name thorax
     direction -0.00653676 0.995132 0.0983291   
     length 1.67429   
     axis 0 0 0   XYZ
    dof rx ry rz
    limits (-20.0 45.0)
           (-30.0 30.0)
           (-30.0 30.0)
  end
  begin
     id 14 
     name lowerneck
     direction 0.0141424 0.999886 0.00525412   
     length 1.59623   
     axis 0 0 0   XYZ
    dof rx ry rz
    limits (-20.0 45.0)
           (-30.0 30.0)
           (-30.0 30.0)
  end
  begin
     id 15 
     name upperneck
     direction -0.0640064 0.987178 -0.146232   
     length 1.59576   
     axis 0 0 0   XYZ
    dof rx ry rz
    limits (-20.0 45.0)
           (-30.0 30.0)
           (-30.0 30.0)
  end
  begin
     id 16
     name head
     direction -0.0222942 0.998496 -0.0500859  
     length 1.60959  
     axis 0 0 0   XYZ
    dof rx ry rz
    limits (-20.0 45.0)
           (-30.0 30.0)
           (-30.0 30.0)
  end
  begin
     id 17 
     name lclavicle
     direction 0.908549 0.392612 0.142806  
     length 2.80649  
     axis 0 0 0   XYZ
    dof ry rz
    limits (-20.0 10.0)
           (0.0 20.0)
  end
  begin
     id 18 
     name lhumerus
     direction 1 -4.48968e-011 1.08832e-028   
     length 4.2884   
     axis -180 -30 -90   XYZ
    dof rx ry rz
    limits (-60.0 90.0)
           (-90.0 90.0)
           (-90.0 90.0)
  end
  begin
     id 19
     name lradius
     direction 1 -4.48952e-011 -3.02642e-028   
     length 3.06552   
     axis -180 -30 -90   XYZ
    dof rx
    limits (-10.0 170.0)
  end
  begin
     id 20
     name lwrist
     direction 1 -4.49014e-011 1.58672e-027   
     length 1.53276   
     axis -1.65735e-015 90 90   XYZ
    dof ry
    limits (-180.0 0.0)
 end
  begin
     id 21 
     name lhand
     direction 1 -4.48928e-011 3.17344e-027   
     length 0.753045   
     axis -2.02492e-015 90 90   XYZ
    dof rx rz
    limits (-90.0 90.0)
           (-45.0 45.0)
  end
  begin
     id 22 
     name lfingers
     direction 1 -4.48958e-011 6.34687e-027   
     length 0.607124   
     axis -4.04985e-015 90 90   XYZ
    dof rx
    limits (0.0 90.0)
  end
  begin
     id 23
     name lthumb
     direction 0.707107 -6.34905e-011 0.707107   
     length 0.871712   
     axis -90 45 2.85299e-015   XYZ
    dof rx rz
    limits (-45.0 45.0)
           (-45.0 45.0)
  end
  begin
     id 24 
     name rclavicle
     direction -0.885098 0.45949 0.0739604   
     length 2.9478  
     axis 0 0 0   XYZ 
    dof ry rz
    limits (-10.0 20.0)
           (-20.0 0.0)
  end
  begin
     id 25 
     name rhumerus
     direction -1 -4.4898e-011 -2.61739e-027  
     length 4.52172   
     axis -180 30 90   XYZ
    dof rx ry rz
    limits (-90.0 60.0)
           (-90.0 90.0)
           (-90.0 90.0)
  end
  begin
     id 26 
     name rradius
     direction -1 -4.48945e-011 9.02552e-028   
     length 2.8914   
     axis -180 30 90   XYZ
    dof rx
    limits (-10.0 170.0)
  end
  begin
     id 27 
     name rwrist
     direction -1 -4.49018e-011 1.58672e-027   
     length 1.4457   
     axis -1.65735e-015 -90 -90   XYZ
    dof ry
    limits (-180.0 0.0)
  end
  begin
     id 28
     name rhand
     direction -1 -4.48825e-011 3.17344e-027   
     length 0.680541   
     axis -2.02492e-015 -90 -90   XYZ
    dof rx rz
    limits (-90.0 90.0)
           (-45.0 45.0)
  end
  begin
     id 29
     name rfingers
     direction -1 -4.49067e-011 6.34687e-027   
     length 0.54867   
     axis -4.04985e-015 -90 -90   XYZ
    dof rx
    limits (0.0 90.0)
  end
  begin
     id 30
     name rthumb
     direction -0.707107 -6.34833e-011 0.707107   
     length 0.787783   
     axis -90 -45 -2.85299e-015   XYZ
    dof rx rz
    limits (-45.0 45.0)
           (-45.0 45.0)
  end
:hierarchy
  begin
    root lhipjoint rhipjoint lowerback
    lhipjoint lfemur
    lfemur ltibia
    ltibia lfoot
    lfoot ltoes
    rhipjoint rfemur
    rfemur rtibia
    rtibia rfoot
    rfoot rtoes
    lowerback upperback
    upperback thorax
    thorax lowerneck lclavicle rclavicle
    lowerneck upperneck
    upperneck head
    lclavicle lhumerus
    lhumerus lradius
    lradius lwrist
    lwrist lhand lthumb
    lhand lfingers
    rclavicle rhumerus
    rhumerus rradius
    rradius rwrist
    rwrist rhand rthumb
    rhand rfingers
  end

#!OML:ASF E:\emotionWalksFemale\Project 1\Capture day 1\Session 1\Female1.ASF
:FULLY-SPECIFIED
:DEGREES
18
root 8.7331 15.5138 23.2733 -178.78 6.45338 -179.2
lowerback 9.07015 1.1054 1.07889
upperback -3.12399 1.63741 0.0990005
thorax -8.37906 0.748965 -0.767529
lowerneck -11.7406 -2.16834 -4.42528
upperneck 18.3847 -1.79481 0.829157
head 7.65521 -0.892985 0.851919
rclavicle -1.37989e-014 -7.73397e-016
rhumerus -50.5248 22.514 -90.7686
rradius 36.9796
rwrist 31.7895
rhand -9.09491 -56.8706
rfingers 7.12502
rthumb 16.8551 -86.1592
lclavicle -1.37989e-014 -7.73397e-016
lhumerus -46.9072 -5.67682 75.0434
lradius 31.9375
lwrist -22.0994
lhand 7.0777 -31.3912
lfingers 7.12502
lthumb 32.3496 -4.25604
rfemur -7.48803 11.9468 24.8619
rtibia 24.5407
rfoot -17.6412 -24.1668
rtoes 7.01604
lfemur -5.64894 -21.1278 -23.5802
ltibia 23.1304
lfoot -24.3766 22.1723
ltoes -27.4002
19
root 8.7331 15.5051 23.2684 -178.926 6.72615 -179.231
lowerback 8.87166 1.14863 1.0041
upperback -2.99641 1.68346 0.139855
thorax -8.12833 0.778616 -0.682746
lowerneck -11.9543 -2.20341 -4.5256
upperneck 18.7706 -1.74076 0.606946
head 7.82002 -0.889279 0.800845
rclavicle 1.72535e-014 4.4975e-015
rhumerus -50.9087 23.6012 -91.6984
rradius 36.7394
rwrist 32.4653
rhand -8.51006 -57.6155
rfingers 7.12502
rthumb 17.418 -86.8551
lclavicle 1.72535e-014 4.4975e-015
lhumerus -47.2605 -6.69814 75.8448
lradius 31.7171
lwrist -22.9027
lhand 7.81011 -31.1259
lfingers 7.12502
lthumb 33.0465 -4.13553
rfemur -7.22373 12.3241 24.8616
rtibia 24.3659
rfoot -17.7432 -24.2355
rtoes 7.32629
lfemur -5.44289 -21.1704 -23.7108
ltibia 23.177
lfoot -24.5085 22.4294
ltoes -27.2826
20
root 8.73293 15.4978 23.2602 -179.051 6.97291 -179.23
lowerback 8.77531 1.17846 0.992057
upperback -2.95495 1.72222 0.169592
thorax -8.02836 0.799955 -0.647583
lowerneck -12.239 -2.22914 -4.60082
upperneck 19.2598 -1.66613 0.387046
head 8.03226 -0.873493 0.748164
rclavicle -4.79257e-015 -6.21202e-016
rhumerus -51.3243 24.4915 -92.6747
rradius 36.2432
rwrist 32.7254
rhand -7.62961 -58.1829
rfingers 7.12502
rthumb 18.2652 -87.3454
lclavicle -4.79257e-015 -6.21202e-016
lhumerus -47.8472 -7.5911 76.5389
lradius 31.6582
lwrist -23.3751
lhand 8.38432 -31.1514
lfingers 7.12502
lthumb 33.5924 -4.27805
rfemur -6.90759 12.7557 24.9079
rtibia 24.1661
rfoot -17.9468 -24.3039
rtoes 7.76315
lfemur -5.25075 -21.1639 -23.8014
ltibia 23.2291
lfoot -24.6211 22.6233
ltoes -27.2324
21
root 8.73272 15.4936 23.2507 -179.146 7.17768 -179.246
lowerback 8.70032 1.17947 1.03092
upperback -2.9532 1.72622 0.153966
thorax -7.98127 0.800075 -0.684597
lowerneck -12.5992 -2.24131 -4.61629
upperneck 19.8683 -1.56681 0.154624
head 8.29846 -0.842629 0.683761
rclavicle -2.14633e-014 8.19987e-016
rhumerus -51.4234 24.8963 -93.3495
rradius 35.5087
rwrist 33.7912
rhand -5.75391 -58.1105
rfingers 7.12502
rthumb 20.0689 -87.0941
lclavicle -2.14633e-014 8.19987e-016
lhumerus -48.384 -8.23842 77.0789
lradius 31.5023
lwrist -23.6388
lhand 8.57688 -31.4716
lfingers 7.12502
lthumb 33.7753 -4.63822
rfemur -6.61611 13.065 24.9307
rtibia 23.9534
rfoot -18.1033 -24.3942
rtoes 7.49915
lfemur -5.06663 -21.2356 -23.9091
ltibia 23.2723
lfoot -24.9941 22.6335
ltoes -26.0697
22
root 8.73162 15.4906 23.2438 -179.196 7.33129 -179.312
lowerback 8.6883 1.16473 1.12757
upperback -3.01529 1.71152 0.0513751
thorax -8.03541 0.784729 -0.845547
lowerneck -12.9227 -2.26644 -4.58131
upperneck 20.5415 -1.5085 0.0164527
head 8.58317 -0.816883 0.638553
rclavicle 2.82653e-014 8.44835e-016
rhumerus -51.3183 24.7147 -93.7054
rradius 34.7851
rwrist 35.4938
rhand -4.17424 -57.555
rfingers 7.12502
rthumb 21.5866 -86.3719
lclavicle 2.82653e-014 8.44835e-016
lhumerus -48.9175 -8.8084 77.5736
lradius 31.3352
lwrist -23.6908
lhand 9.16292 -31.1733
lfingers 7.12502
lthumb 34.332 -4.46384
rfemur -6.44918 13.2647 24.8736
rtibia 23.752
rfoot -18.0128 -24.5422
rtoes 6.191
lfemur -4.95229 -21.3566 -24.0455
ltibia 23.3102
lfoot -25.3295 22.6236
ltoes -24.7834
23
root 8.73194 15.4878 23.2397 -179.211 7.50294 -179.35
lowerback 8.94023 1.15577 1.23543
upperback -3.25439 1.71432 -0.0584283
thorax -8.43361 0.773591 -1.03329
lowerneck -13.0667 -2.2808 -4.45287
upperneck 21.2113 -1.45267 -0.125389
head 8.83518 -0.780915 0.578097
rclavicle -3.12115e-014 -1.13059e-015
rhumerus -51.5616 24.3258 -94.1488
rradius 34.2293
rwrist 36.7013
rhand -4.08913 -57.2268
rfingers 7.12502
rthumb 21.6684 -86.0343
lclavicle -3.12115e-014 -1.13059e-015
lhumerus -49.7341 -9.36605 78.0718
lradius 31.2227
lwrist -23.7134
lhand 9.85298 -30.9185
lfingers 7.12502
lthumb 34.9869 -4.35935
rfemur -6.34352 13.4325 24.8377
rtibia 23.5774
rfoot -17.8578 -24.5876
rtoes 5.31251
lfemur -4.9064 -21.3353 -24.119
ltibia 23.3425
lfoot -25.3114 22.769
ltoes -24.8898
24
root 8.73272 15.4825 23.2363 -179.26 7.75057 -179.351
lowerback 8.65363 1.1926 1.28621
upperback -3.13242 1.75973 -0.0932063
thorax -8.13128 0.795428 -1.09582
lowerneck -13.2539 -2.25822 -4.36007
upperneck 21.4431 -1.39716 -0.212251
head 8.94664 -0.754902 0.53901
rclavicle -7.8815e-016 1.68967e-015
rhumerus -51.3443 24.0567 -94.3502
rradius 33.7929
rwrist 37.3024
rhand -4.14125 -57.317
rfingers 7.12502
rthumb 21.6183 -86.1302
lclavicle -7.8815e-016 1.68967e-015
lhumerus -50.0082 -9.40053 78.3999
lradius 31.0292
lwrist -24.1394
lhand 10.0551 -31.1439
lfingers 7.12502
lthumb 35.1786 -4.6297
rfemur -6.17727 13.6588 24.8631
rtibia 23.4068
rfoot -17.6954 -24.6382
rtoes 4.60477
lfemur -4.8193 -21.2059 -24.1659
ltibia 23.3991
lfoot -25.4231 22.8749
ltoes -24.7774
25
root 8.7319 15.4749 23.2311 -179.366 8.0091 -179.37
lowerback 8.44269 1.23815 1.36222
upperback -3.01529 1.81861 -0.153959
thorax -7.87686 0.821419 -1.20346
lowerneck -13.5691 -2.22654 -4.23219
upperneck 21.7994 -1.32843 -0.281846
head 9.12488 -0.717884 0.500933
rclavicle 2.75193e-015 5.51627e-015
rhumerus -51.0136 23.4942 -94.3917
rradius 33.3271
rwrist 37.8431
rhand -3.89637 -57.4041
rfingers 7.12502
rthumb 21.8535 -86.1901
lclavicle 2.75193e-015 5.51627e-015
lhumerus -50.4 -9.2337 78.6365
lradius 31.0375
lwrist -24.5267
lhand 10.418 -31.2349
lfingers 7.12502
lthumb 35.5227 -4.80252
rfemur -5.94486 14.0291 24.8839
rtibia 23.2346
rfoot -17.5985 -24.7535
rtoes 4.44831
lfemur -4.69341 -21.1196 -24.2686
ltibia 23.4922
lfoot -25.524 23.1422
ltoes -25.2621
26
root 8.73123 15.4696 23.226 -179.464 8.20204 -179.362
lowerback 8.43023 1.26784 1.43746
upperback -3.00513 1.86356 -0.19339
thorax -7.85383 0.838738 -1.29341
lowerneck -13.9503 -2.21065 -4.06886
upperneck 22.3576 -1.24634 -0.433099
head 9.38645 -0.675875 0.431185
rclavicle -1.60115e-014 -4.37326e-015
rhumerus -50.6939 22.5342 -94.2291
rradius 32.859
rwrist 38.356
rhand -3.7528 -57.3608
rfingers 7.12502
rthumb 21.9913 -86.1307
lclavicle -1.60115e-014 -4.37326e-015
lhumerus -50.9314 -9.12085 78.9526
lradius 31.0683
lwrist -24.6682
lhand 10.7296 -31.2786
lfingers 7.12502
lthumb 35.818 -4.91757
rfemur -5.69953 14.504 24.951
rtibia 23.0775
rfoot -17.779 -24.8918
rtoes 5.35427
lfemur -4.57832 -20.9997 -24.333
ltibia 23.5722
lfoot -25.2536 23.5113
ltoes -26.9661
